# xmcd CD Database Entry
#
# Track frame offsets:
# 150
# 32300
# 53507
# 75375
# 95210
# 131510
# 151170
# 173227
# 204160
# 234192
# 248145
# 268890
# 303247
#
# Disc length: 4339 seconds
#
# Revision: 1
# Processed by: cddbd v1.4b41PL1 Copyright (c) Steve Scherf et al.
# Submitted via: tcd 2.0b
#
DISCID=9510f10d
DTITLE=Lefty Jones Band - The Lefty Jones Band
DYEAR=1900
DGENRE=
TTITLE0=Mystery
TTITLE1=Baby Baby Johnson
TTITLE2=My Old Dog
TTITLE3=Billy Bean
TTITLE4=Brotherhood Of Man
TTITLE5=Your Kiss
TTITLE6=Slightly Suicidal
TTITLE7=Robert E. Lee
TTITLE8=Dancing With The Dopes
TTITLE9=Drop The Duck
TTITLE10=Horse
TTITLE11=Piny Woods
TTITLE12=Hold On Hannah
EXTD=Jeff Harris: guitar, vocals\nWalter White: bass\nAndy Malm: d
EXTD=rums\nJoe Delmerico: guitar\n\n
EXTT0=
EXTT1=
EXTT2=
EXTT3=
EXTT4=
EXTT5=
EXTT6=
EXTT7=
EXTT8=
EXTT9=
EXTT10=
EXTT11=
EXTT12=
PLAYORDER=
